<svg width="334" height="79" class="block h-6 w-auto fill-current text-primary"><g fill="currentColor" fill-rule="nonzero"><path d="M152.508 19.8h7.753c4.907 0 7.654-2.15 7.654-6.55 0-4.3-2.747-6.4-7.654-6.4h-7.753V19.8ZM167.425 36l-5.937-10.35c-.392.05-.786.05-1.227.05h-7.753V36h-6.575V1h14.328c8.881 0 13.935 4.35 13.935 12.05 0 5.5-2.404 9.45-6.82 11.35l7.557 11.6h-7.508ZM206.385 22.85l-6.027-14.7-6.125 14.7h12.152Zm2.371 5.75h-16.895L188.8 36h-6.866l15.165-35h6.867l14.968 35h-7.115l-3.062-7.4ZM235.6 1l10.883 22.45L257.315 1h7.618v35h-6.035l-.05-25-10.238 21.4h-4.304L234.066 11v25h-6.133V1zM301.34 1v5.85h-18.771v8.65h16.839v5.85h-16.84v8.8h19.365V36h-26V1zM137.933 1v5.949h-10.69V36h-6.62V6.949h-10.69V1zM134.459 60.55c0-6.85-4.679-11.65-10.869-11.65h-7.325v23.2h7.56c6.098 0 10.634-4.75 10.634-11.55m6.474-.05c0 10.2-7.278 17.5-17.485 17.5h-13.515V43h13.751c10.018 0 17.249 7.25 17.249 17.5M150.933 78h7V43h-7zM192.132 60.55h5.562v12.964c-3.422 2.662-8.558 4.486-13.17 4.486-9.937 0-17.591-7.641-17.591-17.55 0-9.908 7.796-17.45 17.972-17.45 4.802 0 9.7 1.922 13.028 4.93l-3.614 4.83c-2.52-2.415-6.038-3.893-9.414-3.893-6.419 0-11.46 5.077-11.46 11.583 0 6.557 5.088 11.634 11.507 11.634 2.283 0 4.897-.837 7.18-2.17V60.55ZM208.933 78h7V43h-7zM252.933 43v5.949h-10.69V78h-6.62V48.949h-10.69V43zM276.724 64.85l-5.864-14.7-5.96 14.7h11.824Zm2.308 5.75h-16.439l-2.98 7.4h-6.68l14.755-35h6.681l14.564 35h-6.922l-2.98-7.4ZM304.387 43v28.95h14.546V78h-21V43zM326.933 78h7V43h-7zM56.546 14.78h2.208V.69h-9.68v14.09zM29.294 63.53h-9.615v14.594h9.679V63.52h-.064zM58.754 19.62H34.197V29.3h43.736v-9.68zM19.679 44.177h9.678V.69H19.68v18.93h-.001V29.3zM14.838 29.298V19.62H.5v9.678h14.338zM77.933 49.016h-14.34v9.679h14.34zM52.754 34.139H49.075V78.123h9.679V34.139zM44.235 57.766V49.016H.499v9.68h19.115v-.005h5.999v-.01h9.68v.015h8.942z"/></g></svg>